# xmcd CD database file
# Copyright (C) 1997 Ti Kan
#
# Track frame offsets:
#  182
#  17112
#  43652
#  61467
#  85565
#  103982
#  123807
#  146070
#  164560
#  192855
#  214022
#  232182
#  252557
#  274125
#
# Disc length: 3954 seconds
#
# Revision: 1
# Processed by: cddbd v1.4b41PL1 Copyright (c) Steve Scherf et al.
# Submitted via: CDWizzard Release:4.24
#
DISCID=d00f700e
DTITLE=Scud Mountain Boys - The Early Year-Pine Box
DYEAR=1900
DGENRE=
TTITLE0=Silo
TTITLE1=Reservior
TTITLE2=Glacier bay
TTITLE3=Peter graves' Anatomy
TTITLE4=Freight of Fire
TTITLE5=Sweet Sally
TTITLE6=Oklahoma
TTITLE7=Don't Know How to Tell Her
TTITLE8=Gypsies, Tramps and Thieves
TTITLE9=There is No Hell (Like the hell on This Earth)
TTITLE10=Wichita Lineman
TTITLE11=Please, Mr. Please
TTITLE12=Down in Writing
TTITLE13=Closing Time
EXTD=
EXTT0=
EXTT1=
EXTT2=
EXTT3=
EXTT4=
EXTT5=
EXTT6=
EXTT7=
EXTT8=
EXTT9=
EXTT10=
EXTT11=
EXTT12=
EXTT13=
PLAYORDER=
